<svg width="136" height="136" viewBox="0 0 136 136" fill="none" xmlns="http://www.w3.org/2000/svg">
<path d="M16 16C16 16 24 6 68 6C112 6 120 16 120 16C120 16 130 24 130 68C130 112 120 120 120 120C120 120 112 130 68 130C24 130 16 120 16 120C16 120 6 112 6 68C6 24 16 16 16 16Z" fill="white"/>
<path d="M34.0799 72.794H36.8639C40.2279 72.794 41.3879 72.968 42.7219 73.548C44.1719 74.186 45.0419 75.52 45.0419 77.144C45.0419 80.16 42.2579 82.132 38.1399 82.132C33.4999 82.132 30.6579 79.696 30.5999 75.578H21.0879C21.0879 84.568 27.0039 89.556 37.6759 89.556C42.6639 89.556 46.4919 88.57 49.5659 86.424C52.8719 84.162 54.9019 80.45 54.9019 76.622C54.9019 72.852 52.9879 70.242 48.9859 68.386C51.8859 66.878 53.4519 64.268 53.4519 60.962C53.4519 54.524 47.3619 50.29 38.0819 50.29C32.8619 50.29 28.7439 51.682 25.6699 54.408C23.2339 56.67 22.1319 58.99 21.4939 63.282H31.0059C31.5859 59.396 33.8479 57.366 37.7339 57.366C41.2139 57.366 43.5919 59.164 43.5919 61.774C43.5919 63.108 42.7799 64.5 41.5619 65.138C40.4019 65.776 39.8799 65.834 36.6899 65.834H34.0799V72.794Z" fill="black"/>
<path d="M112.978 88.686V50H100.218L89.6625 72.33L88.5605 74.65L87.6325 76.738L87.2845 77.55C86.8785 76.448 86.0085 74.476 85.0805 72.388L74.2345 50H61.3005V88.686H70.9865V68.038C70.9865 66.182 70.9285 65.718 70.6965 62.992L71.2765 64.268C71.5665 64.79 71.8565 65.37 72.0885 65.892C72.4365 66.588 72.7265 67.226 73.0745 67.864L83.0505 88.686H91.4605L100.914 68.676L102.48 65.37C102.828 64.616 103.06 64.036 103.582 62.992C103.408 64.616 103.35 66.646 103.292 69.604V88.686H112.978Z" fill="black"/>
</svg>
